<svg version="1.1" id="Layer_1" xmlns="http://www.w3.org/2000/svg" xmlns:xlink="http://www.w3.org/1999/xlink" x="0px" y="0px"
	 width="100%" viewBox="0 0 406 226" enable-background="new 0 0 406 226" xml:space="preserve">
<path fill="#FFFFFF" opacity="1.000000" stroke="none" 
	d="
M242.000000,227.000000 
	C161.333359,227.000000 81.166718,227.000000 1.000054,227.000000 
	C1.000036,151.666718 1.000036,76.333427 1.000018,1.000104 
	C136.333237,1.000070 271.666473,1.000070 406.999817,1.000035 
	C406.999878,76.333229 406.999878,151.666458 406.999939,226.999847 
	C352.166656,227.000000 297.333344,227.000000 242.000000,227.000000 
M244.138901,71.129570 
	C233.505219,71.111877 222.871414,71.054199 212.237885,71.085304 
	C193.469910,71.140205 174.702103,71.249229 155.242752,70.957352 
	C152.417923,70.917183 149.593094,70.841408 146.768280,70.843155 
	C135.799805,70.849968 131.101685,75.551598 131.079346,86.687431 
	C131.038651,106.975372 131.094391,127.263519 131.048248,147.551437 
	C131.026718,157.020508 130.861267,166.489258 129.935928,175.975494 
	C119.919060,178.713409 109.823830,181.208176 99.950165,184.390411 
	C97.928581,185.041962 95.739693,188.156326 95.490677,190.347183 
	C95.303986,191.989700 97.750618,194.950073 99.638023,195.635727 
	C108.417053,198.824982 117.239037,202.376038 126.365776,204.015335 
	C139.986969,206.461929 153.868317,207.492310 167.656403,208.961899 
	C173.249771,209.558090 178.884369,209.921402 184.508026,210.050613 
	C200.778824,210.424438 217.099487,211.507507 233.314758,210.663437 
	C252.093826,209.685898 270.826050,207.293915 289.491547,204.850952 
	C299.938263,203.483673 310.533966,201.699997 319.629486,195.719666 
	C321.465424,194.512527 323.743195,191.815277 323.498962,190.143768 
	C323.180389,187.963379 320.951416,185.210175 318.848663,184.285217 
	C307.891968,179.465576 296.563385,175.785889 284.189606,175.036499 
	C284.189606,152.654953 284.189606,130.273407 284.189606,107.736778 
	C286.606018,107.736778 288.250519,107.736778 290.273438,108.337982 
	C292.201233,107.665619 294.129028,106.993256 296.876587,106.300339 
	C299.497314,105.302757 302.285095,104.605835 304.711182,103.257919 
	C318.565948,95.560295 325.163147,80.271614 321.157501,65.556435 
	C317.043030,50.441402 302.798615,40.134449 286.260651,40.305813 
	C271.121796,40.462685 256.972198,51.285969 253.962311,65.879120 
	C253.048904,70.307732 251.304855,71.325058 247.451797,70.872902 
	C246.684937,70.782898 245.862259,71.168457 244.138901,71.129570 
M129.039474,47.202171 
	C121.779373,47.054615 115.175552,49.842117 110.916924,55.097950 
	C107.137619,59.762222 105.418541,66.156670 103.165565,71.933830 
	C102.811661,72.841301 104.450623,74.525940 105.168121,75.851227 
	C106.479515,74.933929 107.895233,74.128754 109.055611,73.049133 
	C109.587128,72.554596 109.714600,71.537712 109.858513,70.728073 
	C111.565575,61.124699 116.961555,55.392590 126.807243,53.770752 
	C129.984985,53.247295 132.771652,51.509754 129.039474,47.202171 
M117.935165,70.718178 
	C117.625702,71.833183 116.866112,73.058731 117.106750,74.038658 
	C117.521957,75.729446 118.558907,77.267555 119.334976,78.869720 
	C120.550102,77.615891 122.478630,76.544289 122.853714,75.075890 
	C124.284996,69.472588 127.579491,66.298660 133.149490,64.802979 
	C134.586578,64.417084 135.476334,61.992863 136.617523,60.504978 
	C134.972137,59.887894 133.147888,58.470905 131.712250,58.791901 
	C125.422760,60.198174 120.489677,63.600899 117.935165,70.718178 
z"/>
<path fill="#D8E6FC" opacity="1.000000" stroke="none" 
	d="
M284.359650,175.954132 
	C296.563385,175.785889 307.891968,179.465576 318.848663,184.285217 
	C320.951416,185.210175 323.180389,187.963379 323.498962,190.143768 
	C323.743195,191.815277 321.465424,194.512527 319.629486,195.719666 
	C310.533966,201.699997 299.938263,203.483673 289.491547,204.850952 
	C270.826050,207.293915 252.093826,209.685898 233.314758,210.663437 
	C217.099487,211.507507 200.778824,210.424438 184.508026,210.050613 
	C178.884369,209.921402 173.249771,209.558090 167.656403,208.961899 
	C153.868317,207.492310 139.986969,206.461929 126.365776,204.015335 
	C117.239037,202.376038 108.417053,198.824982 99.638023,195.635727 
	C97.750618,194.950073 95.303986,191.989700 95.490677,190.347183 
	C95.739693,188.156326 97.928581,185.041962 99.950165,184.390411 
	C109.823830,181.208176 119.919060,178.713409 130.476898,176.382751 
	C130.668549,182.040878 132.407928,186.461594 136.238098,190.240494 
	C136.194534,190.446976 136.532883,190.698975 136.532883,190.698975 
	C136.532883,190.698975 136.918228,190.526703 137.279312,190.638260 
	C139.750198,191.433395 141.860016,192.116959 144.050644,193.215683 
	C145.262177,194.086960 146.392197,194.939804 147.523727,194.941803 
	C186.789917,195.010910 226.056320,195.019836 265.322296,194.907639 
	C266.560181,194.904114 267.794128,193.534210 269.425537,192.709656 
	C273.568817,192.437805 277.519073,192.667694 279.029968,188.041519 
	C278.987427,188.036179 279.049103,188.097031 279.428650,188.021423 
	C280.966980,186.818588 282.756805,185.876053 283.152039,184.525406 
	C283.953949,181.785187 284.001282,178.824142 284.359650,175.954132 
z"/>
<path fill="#226AE9" opacity="1.000000" stroke="none" 
	d="
M136.281662,190.034012 
	C132.407928,186.461594 130.668549,182.040878 130.889465,176.374084 
	C130.861267,166.489258 131.026718,157.020508 131.048248,147.551437 
	C131.094391,127.263519 131.038651,106.975372 131.079346,86.687431 
	C131.101685,75.551598 135.799805,70.849968 146.768280,70.843155 
	C149.593094,70.841408 152.417923,70.917183 155.495422,71.519394 
	C150.848389,72.530457 145.948669,72.979477 141.058868,73.427589 
	C141.357498,74.241684 141.678314,75.116302 141.759949,76.233932 
	C136.012299,79.885185 134.044907,89.063187 136.935669,97.865990 
	C137.254791,97.955978 137.574509,98.120094 137.894333,98.120316 
	C177.121368,98.147301 216.348434,98.183350 255.575195,98.086113 
	C256.891998,98.082855 258.205475,96.727493 259.791473,95.918671 
	C259.870789,94.889259 259.679108,93.943535 259.243622,92.734276 
	C257.219879,89.612679 255.439957,86.754623 253.695465,83.508408 
	C253.588821,82.351601 253.446732,81.582954 253.338654,80.459312 
	C253.254288,79.403412 253.135895,78.702499 253.028656,77.742081 
	C252.958740,77.329552 252.877670,77.176537 252.746933,76.776596 
	C252.455978,76.294579 252.214691,76.059471 251.958450,75.439377 
	C250.778839,74.364433 249.633087,73.639587 248.443985,72.994682 
	C247.341843,72.396942 246.193390,71.884644 245.065323,71.334724 
	C245.862259,71.168457 246.684937,70.782898 247.451797,70.872902 
	C251.304855,71.325058 253.048904,70.307732 253.962311,65.879120 
	C256.972198,51.285969 271.121796,40.462685 286.260651,40.305813 
	C302.798615,40.134449 317.043030,50.441402 321.157501,65.556435 
	C325.163147,80.271614 318.565948,95.560295 304.711182,103.257919 
	C302.285095,104.605835 299.497314,105.302757 296.076965,106.181679 
	C293.483215,106.620941 291.689087,107.178864 289.894989,107.736786 
	C288.250519,107.736778 286.606018,107.736778 284.189606,107.736778 
	C284.189606,130.273407 284.189606,152.654953 284.274628,175.495316 
	C284.001282,178.824142 283.953949,181.785187 283.152039,184.525406 
	C282.756805,185.876053 280.966980,186.818588 279.417755,187.678040 
	C279.022308,186.954010 279.017303,186.497772 279.002563,185.644928 
	C278.899628,184.730438 278.806427,184.212570 278.777191,183.353607 
	C278.830353,182.335129 278.819550,181.657745 278.956970,180.532959 
	C279.136292,171.801727 279.225952,163.517593 279.185242,155.234116 
	C279.117737,141.494888 278.966400,127.756065 278.991547,113.651466 
	C278.790405,111.122948 278.448059,108.960037 277.837646,106.495956 
	C275.721832,106.246208 273.874115,106.297630 271.724060,106.399887 
	C270.291748,106.849426 269.161743,107.248131 267.632629,107.674744 
	C265.808624,108.100677 264.363861,108.439171 262.962830,108.908264 
	C259.253693,110.150169 256.618652,110.021126 257.427887,104.937836 
	C257.522125,104.345863 257.143372,103.678581 257.074707,102.715248 
	C256.223877,101.916809 255.282928,101.042274 254.340393,101.040558 
	C216.844559,100.972092 179.348526,100.962685 141.852875,101.068405 
	C140.567398,101.072021 139.285477,102.332314 137.852234,103.399750 
	C137.492706,104.917877 137.101181,106.042885 137.099731,107.168373 
	C137.069031,131.245010 137.113968,155.321793 137.053696,179.398331 
	C137.044174,183.199142 138.671829,185.702698 142.020905,187.482864 
	C142.037720,187.697876 142.100708,188.124710 142.170441,188.516357 
	C143.420197,189.276871 144.599792,189.966629 145.780304,189.968216 
	C186.840866,190.023621 227.901581,190.036789 268.961884,189.916031 
	C270.341125,189.911972 271.716125,188.462784 273.302307,187.519394 
	C273.861969,187.290863 274.212402,187.230148 274.885071,187.451538 
	C275.769623,187.806473 276.331879,187.879257 277.257385,187.970459 
	C278.104553,188.008179 278.588531,188.027512 279.072510,188.046860 
	C277.519073,192.667694 273.568817,192.437805 268.958984,192.633911 
	C250.813660,192.637985 233.530563,192.596954 216.247574,192.621399 
	C192.154953,192.655457 168.062393,192.738480 143.969818,192.800537 
	C141.860016,192.116959 139.750198,191.433395 137.194580,190.530731 
	C136.615112,190.181976 136.459427,190.089447 136.281662,190.034012 
M263.515594,101.269020 
	C264.821228,101.555885 266.354004,102.430321 267.393463,102.028549 
	C272.049530,100.228882 276.387695,100.325745 281.358490,101.492386 
	C293.403351,104.319290 303.944214,100.713135 311.403442,90.731163 
	C318.639557,81.047791 319.104706,70.444649 312.969116,59.874214 
	C305.018372,46.176571 286.338684,41.269375 272.405365,49.419430 
	C260.680511,56.277649 251.673843,72.455353 261.580627,87.023949 
	C264.615417,91.486778 265.347443,95.586281 263.515594,101.269020 
z"/>
<path fill="#0557E7" opacity="1.000000" stroke="none" 
	d="
M141.999146,75.990913 
	C141.678314,75.116302 141.357498,74.241684 141.058868,73.427589 
	C145.948669,72.979477 150.848389,72.530457 155.841156,71.708519 
	C174.702103,71.249229 193.469910,71.140205 212.237885,71.085304 
	C222.871414,71.054199 233.505219,71.111877 244.602112,71.232147 
	C246.193390,71.884644 247.341843,72.396942 248.443985,72.994682 
	C249.633087,73.639587 250.778839,74.364433 251.638763,75.510208 
	C250.917847,76.085335 250.501678,76.204659 249.672394,76.221748 
	C247.851501,76.190071 246.443756,76.260635 244.579712,76.209129 
	C210.082016,76.055016 176.040573,76.022964 141.999146,75.990913 
z"/>
<path fill="#D2E0F9" opacity="1.000000" stroke="none" 
	d="
M129.396561,47.376457 
	C132.771652,51.509754 129.984985,53.247295 126.807243,53.770752 
	C116.961555,55.392590 111.565575,61.124699 109.858513,70.728073 
	C109.714600,71.537712 109.587128,72.554596 109.055611,73.049133 
	C107.895233,74.128754 106.479515,74.933929 105.168121,75.851227 
	C104.450623,74.525940 102.811661,72.841301 103.165565,71.933830 
	C105.418541,66.156670 107.137619,59.762222 110.916924,55.097950 
	C115.175552,49.842117 121.779373,47.054615 129.396561,47.376457 
z"/>
<path fill="#D2E0F9" opacity="1.000000" stroke="none" 
	d="
M118.028595,70.333862 
	C120.489677,63.600899 125.422760,60.198174 131.712250,58.791901 
	C133.147888,58.470905 134.972137,59.887894 136.617523,60.504974 
	C135.476334,61.992863 134.586578,64.417084 133.149490,64.802979 
	C127.579491,66.298660 124.284996,69.472588 122.853714,75.075890 
	C122.478630,76.544289 120.550102,77.615891 119.334976,78.869720 
	C118.558907,77.267555 117.521957,75.729446 117.106750,74.038658 
	C116.866112,73.058731 117.625702,71.833183 118.028595,70.333862 
z"/>
<path fill="#D8E6FC" opacity="1.000000" stroke="none" 
	d="
M290.084229,108.037384 
	C291.689087,107.178864 293.483215,106.620941 295.667053,106.191956 
	C294.129028,106.993256 292.201233,107.665619 290.084229,108.037384 
z"/>
<path fill="#E4EEFD" opacity="1.000000" stroke="none" 
	d="
M144.050644,193.215683 
	C168.062393,192.738480 192.154953,192.655457 216.247574,192.621399 
	C233.530563,192.596954 250.813660,192.637985 268.563293,192.725555 
	C267.794128,193.534210 266.560181,194.904114 265.322296,194.907639 
	C226.056320,195.019836 186.789917,195.010910 147.523727,194.941803 
	C146.392197,194.939804 145.262177,194.086960 144.050644,193.215683 
z"/>
<path fill="#266EE9" opacity="1.000000" stroke="none" 
	d="
M136.238098,190.240494 
	C136.459427,190.089447 136.615112,190.181976 136.833496,190.419159 
	C136.918228,190.526703 136.532883,190.698975 136.532883,190.698975 
	C136.532883,190.698975 136.194534,190.446976 136.238098,190.240494 
z"/>
<path fill="#FCFDFF" opacity="1.000000" stroke="none" 
	d="
M142.004105,187.267853 
	C138.671829,185.702698 137.044174,183.199142 137.053696,179.398331 
	C137.113968,155.321793 137.069031,131.245010 137.099731,107.168373 
	C137.101181,106.042885 137.492706,104.917877 138.228271,103.472275 
	C139.508636,103.080917 140.263260,103.009941 141.162262,103.127419 
	C141.864655,103.190086 142.422684,103.064293 143.439178,103.051765 
	C181.593063,103.125427 219.288483,103.085823 256.983887,103.046219 
	C257.143372,103.678581 257.522125,104.345863 257.427887,104.937836 
	C256.618652,110.021126 259.253693,110.150169 262.962830,108.908264 
	C264.363861,108.439171 265.808624,108.100677 267.578064,108.066574 
	C265.378021,110.447723 262.367371,111.821182 261.952148,115.858917 
	C261.246704,122.718475 260.487579,129.645538 258.839874,136.319260 
	C255.842010,148.461517 252.768951,160.645447 245.526535,171.236221 
	C242.629883,175.472092 240.142700,179.987961 237.088425,185.001221 
	C239.329987,185.001221 240.950485,185.001251 242.570984,185.001205 
	C249.879868,185.000961 257.190125,184.935135 264.495789,185.089279 
	C265.342438,185.107132 266.163330,186.345596 266.540466,187.136917 
	C260.072845,187.405991 254.060989,187.556290 247.634674,187.521515 
	C245.130569,187.457733 243.040955,187.579025 240.509979,187.552811 
	C209.543289,187.379395 179.017914,187.350601 148.492554,187.343201 
	C147.679657,187.343002 146.866699,187.575043 145.682556,187.513458 
	C144.208923,187.308044 143.106506,187.287949 142.004105,187.267853 
M217.162643,154.463409 
	C217.121185,153.153534 217.079727,151.843674 217.038269,150.533798 
	C215.809433,150.607376 214.361298,150.285431 213.390152,150.823822 
	C209.429016,153.019958 205.680420,153.210434 201.634155,150.945282 
	C200.393127,150.250549 198.548569,150.633896 196.980392,150.523560 
	C197.668259,152.135483 197.922043,154.266739 199.120178,155.268219 
	C203.949768,159.305145 209.705688,159.045059 217.162643,154.463409 
M228.438049,134.863708 
	C231.694641,137.546768 234.721573,137.090912 236.571548,133.466232 
	C238.038086,130.592850 236.905334,127.745560 233.712997,126.750427 
	C232.284912,126.305260 229.439560,126.779564 228.948090,127.725441 
	C227.979019,129.590546 228.203110,132.075577 228.438049,134.863708 
M182.151932,127.617439 
	C181.502502,129.702774 180.576080,131.768448 180.425446,133.889206 
	C180.393356,134.341019 183.179520,135.446182 184.674103,135.459015 
	C187.795425,135.485855 190.079956,133.503418 188.778015,130.538025 
	C188.062149,128.907532 184.939728,128.333649 182.151932,127.617439 
z"/>
<path fill="#B1CEFE" opacity="1.000000" stroke="none" 
	d="
M141.759949,76.233932 
	C176.040573,76.022964 210.082016,76.055016 244.690170,76.561485 
	C247.843765,77.357803 250.430634,77.679695 253.017502,78.001595 
	C253.135895,78.702499 253.254288,79.403412 253.027740,80.673561 
	C253.008545,82.127388 253.334305,83.011978 253.660034,83.896561 
	C255.439957,86.754623 257.219879,89.612679 259.187683,93.109398 
	C259.423859,94.499496 259.472198,95.250931 259.520508,96.002365 
	C258.205475,96.727493 256.891998,98.082855 255.575195,98.086113 
	C216.348434,98.183350 177.121368,98.147301 137.894333,98.120316 
	C137.574509,98.120094 137.254791,97.955978 136.935669,97.865990 
	C134.044907,89.063187 136.012299,79.885185 141.759949,76.233932 
M147.786255,90.624924 
	C151.316513,91.298195 152.724960,89.288834 151.785629,86.422310 
	C151.351486,85.097420 148.754944,84.481125 147.138794,83.543564 
	C146.677231,84.005821 146.215652,84.468079 145.754074,84.930344 
	C146.189987,86.713631 146.625885,88.496925 147.786255,90.624924 
M170.298996,89.152756 
	C172.179581,88.893394 174.060165,88.634033 175.940750,88.374672 
	C175.136261,86.952034 174.596313,84.601250 173.477264,84.282318 
	C170.234421,83.358109 169.708572,85.676155 170.298996,89.152756 
M164.000351,86.618874 
	C162.588318,85.800606 161.219727,84.863831 159.710587,84.310303 
	C159.516556,84.239136 158.125488,86.164070 158.139648,87.152145 
	C158.153564,88.124260 159.602432,89.982368 159.814819,89.899330 
	C161.297729,89.319641 162.623047,88.336784 164.000351,86.618874 
z"/>
<path fill="#F5F8FC" opacity="1.000000" stroke="none" 
	d="
M263.585327,100.847351 
	C265.347443,95.586281 264.615417,91.486778 261.580627,87.023949 
	C251.673843,72.455353 260.680511,56.277649 272.405365,49.419430 
	C286.338684,41.269375 305.018372,46.176571 312.969116,59.874214 
	C319.104706,70.444649 318.639557,81.047791 311.403442,90.731163 
	C303.944214,100.713135 293.403351,104.319290 281.358490,101.492386 
	C276.387695,100.325745 272.049530,100.228882 267.393463,102.028549 
	C266.354004,102.430321 264.821228,101.555885 263.585327,100.847351 
M297.083984,67.554848 
	C297.815613,68.984047 298.547241,70.413254 298.927582,71.156242 
	C297.689453,73.195557 295.875336,75.032745 296.247681,75.779327 
	C297.527313,78.344788 299.572266,80.528542 301.325531,82.857765 
	C303.661285,80.285934 305.997070,77.714111 307.593597,75.956200 
	C305.719849,72.777634 304.221497,70.791008 303.294586,68.566299 
	C299.517212,59.500011 288.898102,55.210396 280.676025,59.760876 
	C279.308228,60.517883 278.480682,62.251110 277.403503,63.533230 
	C279.138824,63.722282 281.099976,64.528137 282.569061,63.990170 
	C287.996246,62.002796 292.643951,62.539906 297.083984,67.554848 
M294.890503,83.610222 
	C285.974945,87.889801 279.354858,85.389221 276.329163,76.374710 
	C277.473206,75.688057 278.663208,74.973839 280.345825,73.963959 
	C278.169891,71.008232 276.204254,68.338165 273.698303,64.934135 
	C271.177002,68.532524 269.335327,71.160980 268.136993,72.871269 
	C270.075104,76.201553 271.669220,78.377640 272.689453,80.795830 
	C276.235107,89.199730 287.807892,93.390160 295.354401,88.733925 
	C297.767853,87.244804 300.091675,85.359657 294.890503,83.610222 
z"/>
<path fill="#F2F7FD" opacity="1.000000" stroke="none" 
	d="
M266.996185,187.018158 
	C266.163330,186.345596 265.342438,185.107132 264.495789,185.089279 
	C257.190125,184.935135 249.879868,185.000961 242.570984,185.001205 
	C240.950485,185.001251 239.329987,185.001221 237.088425,185.001221 
	C240.142700,179.987961 242.629883,175.472092 245.526535,171.236221 
	C252.768951,160.645447 255.842010,148.461517 258.839874,136.319260 
	C260.487579,129.645538 261.246704,122.718475 261.952148,115.858917 
	C262.367371,111.821182 265.378021,110.447723 267.977203,108.038666 
	C269.161743,107.248131 270.291748,106.849426 271.827393,106.737701 
	C274.190643,106.948837 276.148193,106.872978 278.105743,106.797127 
	C278.448059,108.960037 278.790405,111.122948 278.610718,113.756706 
	C277.730469,114.914658 277.061157,115.600853 277.059174,116.288979 
	C276.999756,136.850464 276.980927,157.412247 277.079315,177.973404 
	C277.084137,178.978455 278.206696,179.978149 278.808716,180.980347 
	C278.819550,181.657745 278.830353,182.335129 278.503906,183.460464 
	C277.700928,184.523666 277.235138,185.138916 276.516205,185.842133 
	C275.696289,186.343201 275.129578,186.756302 274.562836,187.169418 
	C274.212402,187.230148 273.861969,187.290863 272.907166,187.445984 
	C270.533936,187.366302 268.765045,187.192230 266.996185,187.018158 
z"/>
<path fill="#0557E7" opacity="1.000000" stroke="none" 
	d="
M266.540466,187.136917 
	C268.765045,187.192230 270.533936,187.366302 272.697937,187.613785 
	C271.716125,188.462784 270.341125,189.911972 268.961884,189.916031 
	C227.901581,190.036789 186.840866,190.023621 145.780304,189.968216 
	C144.599792,189.966629 143.420197,189.276871 142.466003,188.523087 
	C143.812469,187.991699 144.933121,187.845230 146.053772,187.698761 
	C146.866699,187.575043 147.679657,187.343002 148.492554,187.343201 
	C179.017914,187.350601 209.543289,187.379395 240.662537,187.852783 
	C243.520660,188.102386 245.784897,187.904495 248.049133,187.706589 
	C254.060989,187.556290 260.072845,187.405991 266.540466,187.136917 
z"/>
<path fill="#0557E7" opacity="1.000000" stroke="none" 
	d="
M257.074707,102.715256 
	C219.288483,103.085823 181.593063,103.125427 143.305679,102.821693 
	C142.148438,102.631889 141.583160,102.785423 141.017899,102.938965 
	C140.263260,103.009941 139.508636,103.080917 138.377945,103.079376 
	C139.285477,102.332314 140.567398,101.072021 141.852875,101.068405 
	C179.348526,100.962685 216.844559,100.972092 254.340393,101.040558 
	C255.282928,101.042274 256.223877,101.916809 257.074707,102.715256 
z"/>
<path fill="#FCFDFF" opacity="1.000000" stroke="none" 
	d="
M278.956970,180.532959 
	C278.206696,179.978149 277.084137,178.978455 277.079315,177.973404 
	C276.980927,157.412247 276.999756,136.850464 277.059174,116.288979 
	C277.061157,115.600853 277.730469,114.914658 278.469543,114.122314 
	C278.966400,127.756065 279.117737,141.494888 279.185242,155.234116 
	C279.225952,163.517593 279.136292,171.801727 278.956970,180.532959 
z"/>
<path fill="#BDD6FF" opacity="1.000000" stroke="none" 
	d="
M253.028656,77.742081 
	C250.430634,77.679695 247.843765,77.357803 245.146454,76.683548 
	C246.443756,76.260635 247.851501,76.190071 249.885040,76.417801 
	C251.272766,76.818565 252.034683,76.921036 252.796616,77.023514 
	C252.877670,77.176537 252.958740,77.329552 253.028656,77.742081 
z"/>
<path fill="#FCFDFF" opacity="1.000000" stroke="none" 
	d="
M277.837646,106.495956 
	C276.148193,106.872978 274.190643,106.948837 272.129730,106.686874 
	C273.874115,106.297630 275.721832,106.246208 277.837646,106.495956 
z"/>
<path fill="#266EE9" opacity="1.000000" stroke="none" 
	d="
M259.791473,95.918671 
	C259.472198,95.250931 259.423859,94.499496 259.431519,93.372940 
	C259.679108,93.943535 259.870789,94.889259 259.791473,95.918671 
z"/>
<path fill="#1F67E9" opacity="1.000000" stroke="none" 
	d="
M145.682556,187.513458 
	C144.933121,187.845230 143.812469,187.991699 142.396271,188.131439 
	C142.100708,188.124710 142.037720,187.697876 142.020905,187.482864 
	C143.106506,187.287949 144.208923,187.308044 145.682556,187.513458 
z"/>
<path fill="#699AEF" opacity="1.000000" stroke="none" 
	d="
M276.769379,185.754181 
	C277.235138,185.138916 277.700928,184.523666 278.439941,183.801544 
	C278.806427,184.212570 278.899628,184.730438 278.698517,185.635544 
	C278.005707,186.084290 277.607178,186.145798 277.098267,186.094604 
	C276.987823,185.981888 276.769379,185.754181 276.769379,185.754181 
z"/>
<path fill="#699AEF" opacity="1.000000" stroke="none" 
	d="
M274.885071,187.451538 
	C275.129578,186.756302 275.696289,186.343201 276.516205,185.842133 
	C276.769379,185.754181 276.987823,185.981888 277.038818,186.383224 
	C277.024567,187.173721 276.959381,187.562897 276.894165,187.952057 
	C276.331879,187.879257 275.769623,187.806473 274.885071,187.451538 
z"/>
<path fill="#266EE9" opacity="1.000000" stroke="none" 
	d="
M277.257385,187.970459 
	C276.959381,187.562897 277.024567,187.173721 277.149231,186.495941 
	C277.607178,186.145798 278.005707,186.084290 278.708252,186.032135 
	C279.017303,186.497772 279.022308,186.954010 279.038208,187.753647 
	C279.049103,188.097031 278.987427,188.036179 279.029968,188.041519 
	C278.588531,188.027512 278.104553,188.008179 277.257385,187.970459 
z"/>
<path fill="#BDD6FF" opacity="1.000000" stroke="none" 
	d="
M253.695480,83.508408 
	C253.334305,83.011978 253.008545,82.127388 252.993713,81.028557 
	C253.446732,81.582954 253.588821,82.351601 253.695480,83.508408 
z"/>
<path fill="#B1CEFE" opacity="1.000000" stroke="none" 
	d="
M252.746933,76.776596 
	C252.034683,76.921036 251.272766,76.818565 250.298172,76.520035 
	C250.501678,76.204659 250.917847,76.085335 251.653717,75.895187 
	C252.214691,76.059471 252.455978,76.294579 252.746933,76.776596 
z"/>
<path fill="#2D72EA" opacity="1.000000" stroke="none" 
	d="
M216.866577,154.707779 
	C209.705688,159.045059 203.949768,159.305145 199.120178,155.268219 
	C197.922043,154.266739 197.668259,152.135483 196.980392,150.523560 
	C198.548569,150.633896 200.393127,150.250549 201.634155,150.945282 
	C205.680420,153.210434 209.429016,153.019958 213.390152,150.823822 
	C214.361298,150.285431 215.809433,150.607376 217.038269,150.533798 
	C217.079727,151.843674 217.121185,153.153534 216.866577,154.707779 
z"/>
<path fill="#266EE9" opacity="1.000000" stroke="none" 
	d="
M228.185898,134.583969 
	C228.203110,132.075577 227.979019,129.590546 228.948090,127.725441 
	C229.439560,126.779564 232.284912,126.305260 233.712997,126.750427 
	C236.905334,127.745560 238.038086,130.592850 236.571548,133.466232 
	C234.721573,137.090912 231.694641,137.546768 228.185898,134.583969 
z"/>
<path fill="#105DE6" opacity="1.000000" stroke="none" 
	d="
M182.527130,127.450409 
	C184.939728,128.333649 188.062149,128.907532 188.778015,130.538025 
	C190.079956,133.503418 187.795425,135.485855 184.674103,135.459015 
	C183.179520,135.446182 180.393356,134.341019 180.425446,133.889206 
	C180.576080,131.768448 181.502502,129.702774 182.527130,127.450409 
z"/>
<path fill="#1F67E9" opacity="1.000000" stroke="none" 
	d="
M247.634674,187.521515 
	C245.784897,187.904495 243.520660,188.102386 241.103882,188.000305 
	C243.040955,187.579025 245.130569,187.457733 247.634674,187.521515 
z"/>
<path fill="#226AE9" opacity="1.000000" stroke="none" 
	d="
M141.162262,103.127411 
	C141.583160,102.785423 142.148438,102.631889 142.847198,102.708427 
	C142.422684,103.064293 141.864655,103.190086 141.162262,103.127411 
z"/>
<path fill="#5790F7" opacity="1.000000" stroke="none" 
	d="
M147.424011,90.452576 
	C146.625885,88.496925 146.189987,86.713631 145.754074,84.930344 
	C146.215652,84.468079 146.677231,84.005821 147.138794,83.543564 
	C148.754944,84.481125 151.351486,85.097420 151.785629,86.422310 
	C152.724960,89.288834 151.316513,91.298195 147.424011,90.452576 
z"/>
<path fill="#5790F7" opacity="1.000000" stroke="none" 
	d="
M170.179932,88.736938 
	C169.708572,85.676155 170.234421,83.358109 173.477264,84.282318 
	C174.596313,84.601250 175.136261,86.952034 175.940750,88.374680 
	C174.060165,88.634033 172.179581,88.893394 170.179932,88.736938 
z"/>
<path fill="#5790F7" opacity="1.000000" stroke="none" 
	d="
M163.999588,87.050957 
	C162.623047,88.336784 161.297729,89.319641 159.814819,89.899330 
	C159.602432,89.982368 158.153564,88.124260 158.139648,87.152145 
	C158.125488,86.164070 159.516556,84.239136 159.710587,84.310303 
	C161.219727,84.863831 162.588318,85.800606 163.999588,87.050957 
z"/>
<path fill="#7DA8F1" opacity="1.000000" stroke="none" 
	d="
M296.827942,67.278313 
	C292.643951,62.539906 287.996246,62.002796 282.569061,63.990170 
	C281.099976,64.528137 279.138824,63.722282 277.403503,63.533226 
	C278.480682,62.251110 279.308228,60.517883 280.676025,59.760876 
	C288.898102,55.210396 299.517212,59.500011 303.294586,68.566299 
	C304.221497,70.791008 305.719849,72.777634 307.593597,75.956200 
	C305.997070,77.714111 303.661285,80.285934 301.325531,82.857758 
	C299.572266,80.528542 297.527313,78.344788 296.247681,75.779327 
	C295.875336,75.032745 297.689453,73.195557 298.927582,71.156242 
	C298.547241,70.413254 297.815613,68.984047 296.827942,67.278313 
z"/>
<path fill="#7DA8F1" opacity="1.000000" stroke="none" 
	d="
M295.241028,83.495331 
	C300.091675,85.359657 297.767853,87.244804 295.354401,88.733925 
	C287.807892,93.390160 276.235107,89.199730 272.689453,80.795830 
	C271.669220,78.377640 270.075104,76.201553 268.136993,72.871269 
	C269.335327,71.160980 271.177002,68.532524 273.698303,64.934135 
	C276.204254,68.338165 278.169891,71.008232 280.345825,73.963959 
	C278.663208,74.973839 277.473206,75.688057 276.329163,76.374710 
	C279.354858,85.389221 285.974945,87.889801 295.241028,83.495331 
z"/>
</svg>